:SAMPLES-PER-SECOND 30
:FULLY-SPECIFIED
:DEGREES
97
root  40.3954 34.6587 9.77571 -169.55 -20.3972 173.461
RightUpLeg  -5.01185 -1.06858 -36.8224
RightLeg  15.1624 -6.6874 -3.62892
RightFoot  -1.05647 -4.97808 51.6357
RightToes  2.32829e-010 0 -3.6325e-017
Spine  25.0107 2.67722 -7.09187
Spine1  13.2837 2.01548 -4.11044
HEad  -31.676 5.85892 -4.30856
LeftShoulder1  2.53397 -5.61814 -21.4246
LeftArm  10.2067 7.00472 -62.2799
LeftForeArm  57.2197 -78.1168 -58.4244
LeftHand  -2.77829 -4.14885 33.2272
RightShoulder  0.759795 -0.0189293 15.0884
RightArm  4.17727 -5.44391 59.3553
RightForeArm  77.3882 78.6889 100.562
RightHand  -0.143473 0.581388 -2.87401
LeftUpLeg  -33.6547 0.177172 13.7904
LeftLeg  45.7 6.55861 7.52435
LeftFoot  -8.80218 0.592144 -24.2152
LeftToes  -5.54824e-011 -8.71001e-011 8.3852e-012
98
root  38.2304 34.9193 10.065 -169.669 -18.7238 174.719
RightUpLeg  -2.96556 -13.9048 -36.6551
RightLeg  6.12484 -3.19111 -6.4393
RightFoot  13.7989 -10.5896 46.1435
RightToes  2.32829e-010 0 -3.6325e-017
Spine  22.625 3.14693 -8.19365
Spine1  15.2569 1.90231 -2.12278
HEad  -30.5199 6.40064 -4.64501
LeftShoulder1  2.52619 -6.03237 -20.0433
LeftArm  14.3891 6.64985 -63.9939
LeftForeArm  64.8761 -78.9478 -67.4501
LeftHand  -2.78314 -4.15467 33.2538
RightShoulder  0.722854 -0.127041 14.6573
RightArm  0.928214 -7.75518 57.5077
RightForeArm  90.0741 78.0499 112.099
RightHand  -0.144173 0.779187 -2.80508
LeftUpLeg  -33.5402 -0.26832 11.1548
LeftLeg  48.1706 8.11031 10.0034
LeftFoot  -12.8974 -0.228255 -21.9761
LeftToes  -5.54824e-011 -8.71001e-011 8.3852e-012
99
root  36.115 35.307 10.3373 -170.208 -17.5224 177.153
RightUpLeg  -2.15323 -19.8178 -35.0924
RightLeg  1.04811 -10.6693 -6.17399
RightFoot  28.7237 -12.5087 33.9799
RightToes  2.32829e-010 0 -3.6325e-017
Spine  18.9126 2.96049 -8.20984
Spine1  18.5067 1.23365 0.444628
HEad  -29.204 7.568 -4.981
LeftShoulder1  2.39061 -6.00648 -18.5875
LeftArm  18.4591 6.03036 -63.6326
LeftForeArm  79.3685 -79.677 -82.0627
LeftHand  -2.76685 -4.15227 33.0798
RightShoulder  0.680563 -0.285162 14.3707
RightArm  -1.49761 -10.2997 56.6984
RightForeArm  102.577 76.3127 126.032
RightHand  -0.14765 0.679515 -2.90803
LeftUpLeg  -33.0977 0.872425 9.66917
LeftLeg  49.1171 8.19251 10.4524
LeftFoot  -15.4124 -0.597766 -19.3133
LeftToes  -5.54824e-011 -8.71001e-011 8.3852e-012
100
root  34.1494 35.9475 10.5718 -170.572 -16.1211 179.404
RightUpLeg  -3.44681 -19.2016 -32.0554
RightLeg  1.53978 -18.8246 -4.74397
RightFoot  33.9696 -9.78411 23.5956
RightToes  2.32829e-010 0 -3.6325e-017
Spine  15.3815 2.4267 -7.86223
Spine1  20.951 0.153116 2.86297
HEad  -27.1558 9.26386 -5.20305
LeftShoulder1  2.18858 -5.66108 -17.2279
LeftArm  20.941 6.29301 -61.4136
LeftForeArm  96.8253 -79.6705 -99.1743
LeftHand  -2.72358 -4.09748 32.7676
RightShoulder  0.628578 -0.473854 13.938
RightArm  -2.17182 -12.6728 57.7238
RightForeArm  111.457 74.3576 135.213
RightHand  -0.173778 0.789217 -3.35937
LeftUpLeg  -31.5649 2.90349 7.85905
LeftLeg  47.6195 8.82281 10.6356
LeftFoot  -17.0212 -0.68121 -15.6721
LeftToes  -5.54824e-011 -8.71001e-011 8.3852e-012
101
root  32.3907 36.9878 10.6786 -171.276 -13.5256 -179.882
RightUpLeg  -6.05648 -16.601 -28.1149
RightLeg  5.16669 -17.5291 -5.4375
RightFoot  29.5691 -7.25774 19.8735
RightToes  2.32829e-010 0 -3.6325e-017
Spine  13.6459 2.33473 -8.61093
Spine1  21.8956 -0.531092 4.52422
HEad  -24.5113 11.3269 -5.52407
LeftShoulder1  1.95719 -5.06602 -16.0926
LeftArm  21.1442 8.51368 -58.7085
LeftForeArm  110.884 -79.0341 -112.446
LeftHand  -2.56741 -3.96089 31.4133
RightShoulder  0.576878 -0.699311 13.7566
RightArm  -1.09694 -14.7299 59.5008
RightForeArm  120.063 72.6852 141.185
RightHand  -0.200991 1.28716 -3.62892
LeftUpLeg  -27.1364 5.12574 4.91503
LeftLeg  42.3292 10.6687 10.6075
LeftFoot  -16.0895 -0.425399 -12.3524
LeftToes  -5.54824e-011 -8.71001e-011 8.3852e-012
102
root  30.734 38.2587 10.6667 -171.972 -11.5857 179.801
RightUpLeg  -7.76898 -11.3119 -24.0896
RightLeg  8.46545 -13.9553 -6.01579
RightFoot  22.8807 -5.7761 19.1648
RightToes  2.32829e-010 0 -3.6325e-017
Spine  12.5922 1.65786 -8.92117
Spine1  22.5254 -1.27727 4.64043
HEad  -21.9821 13.4436 -6.27953
LeftShoulder1  1.69654 -4.13041 -15.4224
LeftArm  19.8588 11.8128 -56.8592
LeftForeArm  118.393 -78.5049 -118.834
LeftHand  -2.37384 -3.84769 29.5135
RightShoulder  0.52613 -0.939973 13.7111
RightArm  1.22816 -16.2681 60.7902
RightForeArm  126.402 71.3414 145.034
RightHand  -0.23987 1.80569 -4.03343
LeftUpLeg  -22.0548 6.17947 1.77214
LeftLeg  35.1675 12.9839 10.0141
LeftFoot  -10.7823 0.110795 -10.4161
LeftToes  -5.54824e-011 -8.71001e-011 8.3852e-012
103
root  29.1601 39.5508 10.6285 -172.177 -10.3693 179.86
RightUpLeg  -9.25773 -5.75688 -19.1666
RightLeg  10.3732 -11.7779 -5.69092
RightFoot  19.1204 -5.36938 20.0464
RightToes  2.32829e-010 0 -3.6325e-017
Spine  11.1696 0.660111 -7.69494
Spine1  23.1031 -1.8727 4.04083
HEad  -19.7461 14.9904 -7.26704
LeftShoulder1  1.4288 -2.94491 -15.3494
LeftArm  18.4131 14.5515 -56.1318
LeftForeArm  120.302 -78.3694 -120.255
LeftHand  -2.25718 -3.82517 28.1977
RightShoulder  0.495499 -1.03843 13.254
RightArm  3.72577 -17.5764 61.2047
RightForeArm  128.319 70.5143 146.843
RightHand  -0.298631 2.06492 -4.83462
LeftUpLeg  -18.5615 8.2394 -0.313678
LeftLeg  28.5282 13.0422 7.9527
LeftFoot  -2.26741 0.840405 -10.2631
LeftToes  -5.54824e-011 -8.71001e-011 8.3852e-012
